<svg width="1440" height="125" viewBox="0 0 1440 125" fill="none" xmlns="http://www.w3.org/2000/svg">
<path d="M-3.92004 1.80002H185.192V86.5H8.39996V89.58H185.192V125H-3.92004V1.80002ZM22.876 120.38C25.2373 120.38 27.3933 119.815 29.344 118.686C31.3973 117.557 32.9886 116.017 34.118 114.066C35.35 112.013 35.966 109.805 35.966 107.444C35.966 105.083 35.35 102.927 34.118 100.976C32.9886 98.9227 31.3973 97.3314 29.344 96.202C27.3933 94.97 25.2373 94.354 22.876 94.354C20.5146 94.354 18.3073 94.97 16.254 96.202C14.3033 97.3314 12.7633 98.9227 11.634 100.976C10.5046 102.927 9.93996 105.083 9.93996 107.444C9.93996 109.805 10.5046 111.961 11.634 113.912C12.866 115.863 14.4573 117.454 16.408 118.686C18.3586 119.815 20.5146 120.38 22.876 120.38ZM163.478 40.762C168.201 40.762 172.205 39.1193 175.49 35.834C178.878 32.446 180.572 28.3907 180.572 23.668C180.572 18.9453 178.878 14.89 175.49 11.502C172.205 8.11401 168.201 6.42001 163.478 6.42001C158.755 6.42001 154.7 8.11401 151.312 11.502C147.924 14.7873 146.23 18.8427 146.23 23.668C146.23 28.3907 147.924 32.446 151.312 35.834C154.7 39.1193 158.755 40.762 163.478 40.762Z" fill="#ECEFFA"/>
<path d="M215.773 126.54C210.126 126.54 204.942 125.205 200.219 122.536C195.599 119.764 191.903 116.068 189.131 111.448C186.462 106.725 185.127 101.592 185.127 96.048C185.127 90.2987 186.462 85.114 189.131 80.494C191.8 75.874 195.445 72.2294 200.065 69.56C204.685 66.8907 209.921 65.556 215.773 65.556H243.955C245.906 65.556 247.702 65.094 249.345 64.17C250.988 63.1433 252.271 61.8087 253.195 60.166C254.222 58.5234 254.735 56.6754 254.735 54.622C254.735 52.6714 254.222 50.8747 253.195 49.232C252.271 47.5894 250.988 46.306 249.345 45.382C247.702 44.3554 245.906 43.842 243.955 43.842H206.841V1.80002H230.711C233.791 1.80002 236.768 2.57002 239.643 4.11002C242.518 5.65001 244.828 8.01135 246.573 11.194L300.473 108.214C302.218 111.397 302.783 114.271 302.167 116.838C301.551 119.302 300.216 121.304 298.163 122.844C296.212 124.281 294.21 125 292.157 125H271.983C269.108 125 266.593 123.973 264.437 121.92C262.384 119.764 261.357 117.249 261.357 114.374V100.822C261.357 96.4074 261.357 93.1734 261.357 91.12C261.357 88.964 261.357 85.7814 261.357 81.572C261.357 79.9294 260.741 78.5434 259.509 77.414C258.38 76.182 256.994 75.566 255.351 75.566C253.708 75.566 252.271 76.182 251.039 77.414C249.807 78.5434 249.191 79.9294 249.191 81.572V96.048C249.191 101.592 247.805 106.725 245.033 111.448C242.364 116.068 238.668 119.764 233.945 122.536C229.325 125.205 224.243 126.54 218.699 126.54H215.773ZM217.929 105.442C219.674 105.442 221.266 105.031 222.703 104.21C224.243 103.286 225.424 102.105 226.245 100.668C227.169 99.128 227.631 97.4854 227.631 95.74C227.631 93.9947 227.169 92.352 226.245 90.812C225.424 89.272 224.243 88.0914 222.703 87.27C221.266 86.346 219.674 85.884 217.929 85.884C216.184 85.884 214.541 86.346 213.001 87.27C211.461 88.0914 210.229 89.272 209.305 90.812C208.484 92.352 208.073 93.9947 208.073 95.74C208.073 97.4854 208.484 99.128 209.305 100.668C210.229 102.105 211.461 103.286 213.001 104.21C214.541 105.031 216.184 105.442 217.929 105.442Z" fill="#ECEFFA"/>
<path d="M320.755 15.66V31.06H305.355V15.66H320.755ZM337.695 0.26001V15.66H320.755V0.26001H337.695ZM305.355 31.06V54.93H289.955V31.06H305.355ZM320.755 54.93V70.33H305.355V54.93H320.755ZM305.355 70.33V94.2H289.955V70.33H305.355ZM320.755 94.2V109.6H305.355V94.2H320.755ZM337.695 109.6V125H320.755V109.6H337.695ZM334.615 70.33V84.19H320.755V70.33H334.615ZM337.695 109.6V94.2H353.095V109.6H337.695ZM353.095 94.2V70.33H368.495V94.2H353.095ZM337.695 70.33V54.93H353.095V70.33H337.695ZM353.095 54.93V31.06H368.495V54.93H353.095ZM337.695 31.06V15.66H353.095V31.06H337.695ZM323.835 54.93V41.07H337.695V54.93H323.835Z" fill="#ECEFFA"/>
<path d="M390.061 125C385.955 125 382.105 123.973 378.511 121.92C375.021 119.764 372.197 116.941 370.041 113.45C367.988 109.857 366.961 106.007 366.961 101.9V77.26C366.961 73.0507 367.988 69.2007 370.041 65.71C372.095 62.1167 374.867 59.2934 378.357 57.24C381.951 55.1867 385.852 54.16 390.061 54.16H453.355C453.869 54.16 454.228 54.006 454.433 53.698C454.741 53.39 454.895 53.0307 454.895 52.62C454.895 52.1067 454.741 51.7473 454.433 51.542C454.228 51.234 453.869 51.08 453.355 51.08H390.985C386.263 51.08 382.259 49.4374 378.973 46.152C375.791 42.8667 374.199 38.914 374.199 34.294V18.586C374.199 13.8633 375.791 9.91068 378.973 6.72802C382.259 3.44268 386.263 1.80002 390.985 1.80002H462.441V6.11202C462.441 8.37068 461.62 10.3213 459.977 11.964C458.335 13.504 456.384 14.274 454.125 14.274H448.119C445.861 14.274 443.91 13.504 442.267 11.964C440.727 10.3213 439.957 8.37068 439.957 6.11202V4.88001H436.877V15.044H447.657C452.483 15.044 456.641 16.7893 460.131 20.28C463.622 23.7707 465.367 27.9287 465.367 32.754V81.264C465.367 84.8573 464.443 88.194 462.595 91.274C460.747 94.354 458.283 96.818 455.203 98.666C452.123 100.514 448.787 101.438 445.193 101.438H436.877V121.92H439.957V111.14C439.957 108.881 440.727 106.931 442.267 105.288C443.91 103.645 445.861 102.824 448.119 102.824H456.127C458.386 102.824 460.337 103.645 461.979 105.288C463.622 106.931 464.443 108.881 464.443 111.14V125H390.061Z" fill="#ECEFFA"/>
<path d="M522.837 126.54C513.289 126.54 505.589 123.511 499.737 117.454C493.988 111.397 491.113 102.721 491.113 91.428V84.96H462.315V67.096H480.179C483.567 67.096 486.236 66.0694 488.187 64.016C490.138 61.86 491.113 58.472 491.113 53.852V1.80002H498.813V62.784C498.813 64.2213 499.326 65.2994 500.353 66.018C501.482 66.7367 502.663 66.8907 503.895 66.48C505.127 66.0694 505.948 65.248 506.359 64.016L524.223 12.426C526.276 6.36868 529.972 2.57001 535.311 1.03001C540.65 -0.612655 545.526 0.568012 549.941 4.57201C554.458 8.47335 556.717 14.6847 556.717 23.206V84.96H498.813V86.808C498.813 91.8387 500.815 95.6374 504.819 98.204C508.823 100.771 515.086 102.054 523.607 102.054C528.946 102.054 533.463 101.643 537.159 100.822C540.855 99.898 543.627 98.7687 545.475 97.434C547.323 96.0994 548.247 94.7133 548.247 93.276H559.181V94.97C559.181 101.541 557.538 107.239 554.253 112.064C550.968 116.787 546.553 120.38 541.009 122.844C535.568 125.308 529.51 126.54 522.837 126.54Z" fill="#ECEFFA"/>
<path d="M557.669 1.80002H635.439V125H557.669V1.80002ZM596.631 117.608C602.277 117.608 607.462 116.222 612.185 113.45C616.907 110.575 620.655 106.777 623.427 102.054C626.301 97.2287 627.739 91.9927 627.739 86.346C627.739 80.802 626.301 75.6687 623.427 70.946C620.655 66.1207 616.907 62.322 612.185 59.55C607.462 56.778 602.277 55.392 596.631 55.392C590.984 55.392 585.748 56.778 580.923 59.55C576.2 62.322 572.453 66.1207 569.681 70.946C566.909 75.6687 565.523 80.802 565.523 86.346C565.523 91.9927 566.909 97.2287 569.681 102.054C572.453 106.777 576.2 110.575 580.923 113.45C585.748 116.222 590.984 117.608 596.631 117.608Z" fill="#ECEFFA"/>
<path d="M635.427 1.80002H659.605V8.42202H657.141C654.061 8.42202 651.391 9.50001 649.133 11.656C646.977 13.812 645.899 16.43 645.899 19.51C645.899 22.4873 646.977 25.1054 649.133 27.364C651.391 29.52 654.061 30.598 657.141 30.598C660.118 30.598 662.685 29.52 664.841 27.364C666.997 25.1054 668.075 22.4873 668.075 19.51V14.582H675.313V36.45H645.283V40.146H721.051V125H680.549V117.3C686.195 117.197 691.534 115.606 696.565 112.526C701.698 109.446 705.753 105.288 708.731 100.052C711.811 94.7133 713.351 88.8614 713.351 82.496C713.351 76.1307 711.759 70.2787 708.577 64.94C705.497 59.6013 701.287 55.392 695.949 52.312C690.61 49.1293 684.758 47.538 678.393 47.538C672.027 47.538 666.124 49.1293 660.683 52.312C655.241 55.392 650.929 59.6013 647.747 64.94C644.667 70.2787 643.127 76.1307 643.127 82.496C643.127 88.8614 644.667 94.662 647.747 99.898C650.827 105.134 654.933 109.292 660.067 112.372C665.2 115.452 670.693 117.095 676.545 117.3V125H635.427V1.80002Z" fill="#ECEFFA"/>
<path d="M742.601 125C738.494 125 734.644 123.973 731.051 121.92C727.56 119.764 724.737 116.941 722.581 113.45C720.528 109.857 719.501 106.007 719.501 101.9V77.26C719.501 73.0507 720.528 69.2007 722.581 65.71C724.634 62.1167 727.406 59.2934 730.897 57.24C734.49 55.1867 738.392 54.16 742.601 54.16H805.895C806.408 54.16 806.768 54.006 806.973 53.698C807.281 53.39 807.435 53.0307 807.435 52.62C807.435 52.1067 807.281 51.7473 806.973 51.542C806.768 51.234 806.408 51.08 805.895 51.08H743.525C738.802 51.08 734.798 49.4374 731.513 46.152C728.33 42.8667 726.739 38.914 726.739 34.294V18.586C726.739 13.8633 728.33 9.91068 731.513 6.72802C734.798 3.44268 738.802 1.80002 743.525 1.80002H814.981V6.11202C814.981 8.37068 814.16 10.3213 812.517 11.964C810.874 13.504 808.924 14.274 806.665 14.274H800.659C798.4 14.274 796.45 13.504 794.807 11.964C793.267 10.3213 792.497 8.37068 792.497 6.11202V4.88001H789.417V15.044H800.197C805.022 15.044 809.18 16.7893 812.671 20.28C816.162 23.7707 817.907 27.9287 817.907 32.754V81.264C817.907 84.8573 816.983 88.194 815.135 91.274C813.287 94.354 810.823 96.818 807.743 98.666C804.663 100.514 801.326 101.438 797.733 101.438H789.417V121.92H792.497V111.14C792.497 108.881 793.267 106.931 794.807 105.288C796.45 103.645 798.4 102.824 800.659 102.824H808.667C810.926 102.824 812.876 103.645 814.519 105.288C816.162 106.931 816.983 108.881 816.983 111.14V125H742.601Z" fill="#ECEFFA"/>
<path d="M816.359 1.80002H856.398L832.837 33.986H836.533L838.535 31.368C845.927 21.7173 854.807 14.12 865.177 8.57601C875.648 3.03201 887.712 0.26001 901.367 0.26001C914.816 0.26001 927.239 3.59668 938.635 10.27C950.133 16.9433 959.219 26.0807 965.893 37.682C972.669 49.1807 976.057 61.86 976.057 75.72V125H857.015V117.3C861.224 117.095 865.177 115.863 868.872 113.604C872.568 111.243 875.546 108.163 877.805 104.364C880.063 100.565 881.193 96.356 881.193 91.736C881.193 87.116 880.012 82.8554 877.651 78.954C875.392 75.0527 872.261 71.9727 868.257 69.714C864.355 67.4553 860.095 66.326 855.475 66.326C850.855 66.326 846.594 67.4553 842.693 69.714C838.791 71.9727 835.66 75.0527 833.299 78.954C831.04 82.8554 829.911 87.116 829.911 91.736C829.911 96.2533 831.091 100.514 833.453 104.518C835.814 108.419 838.843 111.551 842.539 113.912C846.234 116.171 850.033 117.3 853.935 117.3V125H816.359V1.80002Z" fill="#ECEFFA"/>
<path d="M1005.38 15.66V31.06H989.976V15.66H1005.38ZM1022.32 0.26001V15.66H1005.38V0.26001H1022.32ZM989.976 31.06V54.93H974.576V31.06H989.976ZM1005.38 54.93V70.33H989.976V54.93H1005.38ZM989.976 70.33V94.2H974.576V70.33H989.976ZM1005.38 94.2V109.6H989.976V94.2H1005.38ZM1022.32 109.6V125H1005.38V109.6H1022.32ZM1019.24 70.33V84.19H1005.38V70.33H1019.24ZM1022.32 109.6V94.2H1037.72V109.6H1022.32ZM1037.72 94.2V70.33H1053.12V94.2H1037.72ZM1022.32 70.33V54.93H1037.72V70.33H1022.32ZM1037.72 54.93V31.06H1053.12V54.93H1037.72ZM1022.32 31.06V15.66H1037.72V31.06H1022.32ZM1008.46 54.93V41.07H1022.32V54.93H1008.46Z" fill="#ECEFFA"/>
<path d="M1112.1 126.54C1102.56 126.54 1094.86 123.511 1089 117.454C1083.25 111.397 1080.38 102.721 1080.38 91.428V84.96H1051.58V67.096H1069.45C1072.83 67.096 1075.5 66.0694 1077.45 64.016C1079.4 61.86 1080.38 58.472 1080.38 53.852V1.80002H1088.08V62.784C1088.08 64.2213 1088.59 65.2994 1089.62 66.018C1090.75 66.7367 1091.93 66.8907 1093.16 66.48C1094.39 66.0694 1095.21 65.248 1095.63 64.016L1113.49 12.426C1115.54 6.36868 1119.24 2.57001 1124.58 1.03001C1129.92 -0.612655 1134.79 0.568012 1139.21 4.57201C1143.72 8.47335 1145.98 14.6847 1145.98 23.206V84.96H1088.08V86.808C1088.08 91.8387 1090.08 95.6374 1094.09 98.204C1098.09 100.771 1104.35 102.054 1112.87 102.054C1118.21 102.054 1122.73 101.643 1126.43 100.822C1130.12 99.898 1132.89 98.7687 1134.74 97.434C1136.59 96.0994 1137.51 94.7133 1137.51 93.276H1148.45V94.97C1148.45 101.541 1146.8 107.239 1143.52 112.064C1140.23 116.787 1135.82 120.38 1130.28 122.844C1124.83 125.308 1118.78 126.54 1112.1 126.54Z" fill="#ECEFFA"/>
<path d="M1146.94 1.80002H1224.71V125H1146.94V1.80002ZM1185.9 117.608C1191.54 117.608 1196.73 116.222 1201.45 113.45C1206.17 110.575 1209.92 106.777 1212.69 102.054C1215.57 97.2287 1217.01 91.9927 1217.01 86.346C1217.01 80.802 1215.57 75.6687 1212.69 70.946C1209.92 66.1207 1206.17 62.322 1201.45 59.55C1196.73 56.778 1191.54 55.392 1185.9 55.392C1180.25 55.392 1175.01 56.778 1170.19 59.55C1165.47 62.322 1161.72 66.1207 1158.95 70.946C1156.18 75.6687 1154.79 80.802 1154.79 86.346C1154.79 91.9927 1156.18 97.2287 1158.95 102.054C1161.72 106.777 1165.47 110.575 1170.19 113.45C1175.01 116.222 1180.25 117.608 1185.9 117.608Z" fill="#ECEFFA"/>
<path d="M1224.69 1.80002H1285.52C1290.96 1.80002 1295.58 3.75068 1299.38 7.65202C1303.28 11.4507 1305.24 16.0707 1305.24 21.512C1305.24 26.9534 1303.28 31.6247 1299.38 35.526C1295.58 39.3247 1290.96 41.224 1285.52 41.224H1237.32V44.304H1307.55C1315.25 44.304 1322.07 45.998 1328.03 49.386C1334.08 52.6714 1338.81 57.3427 1342.2 63.4C1345.58 69.3547 1347.28 76.1307 1347.28 83.728V125H1306.93V115.76C1312.37 115.76 1317.45 114.323 1322.18 111.448C1326.9 108.573 1330.65 104.672 1333.42 99.744C1336.29 94.816 1337.73 89.4774 1337.73 83.728C1337.73 77.9787 1336.29 72.6913 1333.42 67.866C1330.65 63.0407 1326.8 59.1907 1321.87 56.316C1317.04 53.4413 1311.75 52.004 1306.01 52.004H1269.05C1263.4 52.004 1258.11 53.4413 1253.18 56.316C1248.36 59.1907 1244.51 63.092 1241.63 68.02C1238.76 72.8454 1237.32 78.0814 1237.32 83.728C1237.32 89.4774 1238.71 94.816 1241.48 99.744C1244.35 104.672 1248.15 108.573 1252.88 111.448C1257.6 114.323 1262.68 115.76 1268.12 115.76V125H1224.69V1.80002ZM1285.83 33.524C1287.88 33.524 1289.78 33.0107 1291.53 31.984C1293.38 30.8547 1294.81 29.366 1295.84 27.518C1296.97 25.67 1297.54 23.668 1297.54 21.512C1297.54 19.356 1296.97 17.354 1295.84 15.506C1294.81 13.658 1293.38 12.2207 1291.53 11.194C1289.78 10.0647 1287.88 9.50001 1285.83 9.50001C1283.78 9.50001 1281.83 10.0647 1279.98 11.194C1278.23 12.2207 1276.8 13.658 1275.67 15.506C1274.64 17.354 1274.13 19.356 1274.13 21.512C1274.13 23.668 1274.64 25.67 1275.67 27.518C1276.8 29.366 1278.23 30.8547 1279.98 31.984C1281.83 33.0107 1283.78 33.524 1285.83 33.524Z" fill="#ECEFFA"/>
<path d="M1368.86 125C1364.76 125 1360.91 123.973 1357.31 121.92C1353.82 119.764 1351 116.941 1348.84 113.45C1346.79 109.857 1345.76 106.007 1345.76 101.9V77.26C1345.76 73.0507 1346.79 69.2007 1348.84 65.71C1350.9 62.1167 1353.67 59.2934 1357.16 57.24C1360.75 55.1867 1364.65 54.16 1368.86 54.16H1432.16C1432.67 54.16 1433.03 54.006 1433.24 53.698C1433.54 53.39 1433.7 53.0307 1433.7 52.62C1433.7 52.1067 1433.54 51.7473 1433.24 51.542C1433.03 51.234 1432.67 51.08 1432.16 51.08H1369.79C1365.07 51.08 1361.06 49.4374 1357.78 46.152C1354.59 42.8667 1353 38.914 1353 34.294V18.586C1353 13.8633 1354.59 9.91068 1357.78 6.72802C1361.06 3.44268 1365.07 1.80002 1369.79 1.80002H1441.24V6.11202C1441.24 8.37068 1440.42 10.3213 1438.78 11.964C1437.14 13.504 1435.19 14.274 1432.93 14.274H1426.92C1424.66 14.274 1422.71 13.504 1421.07 11.964C1419.53 10.3213 1418.76 8.37068 1418.76 6.11202V4.88001H1415.68V15.044H1426.46C1431.29 15.044 1435.44 16.7893 1438.93 20.28C1442.42 23.7707 1444.17 27.9287 1444.17 32.754V81.264C1444.17 84.8573 1443.25 88.194 1441.4 91.274C1439.55 94.354 1437.09 96.818 1434.01 98.666C1430.93 100.514 1427.59 101.438 1424 101.438H1415.68V121.92H1418.76V111.14C1418.76 108.881 1419.53 106.931 1421.07 105.288C1422.71 103.645 1424.66 102.824 1426.92 102.824H1434.93C1437.19 102.824 1439.14 103.645 1440.78 105.288C1442.42 106.931 1443.25 108.881 1443.25 111.14V125H1368.86Z" fill="#ECEFFA"/>
</svg>
