<?xml version="1.0" encoding="UTF-8" standalone="no"?>
<!DOCTYPE svg PUBLIC "-//W3C//DTD SVG 1.1//EN" "http://www.w3.org/Graphics/SVG/1.1/DTD/svg11.dtd">
<svg width="100%" height="100%" viewBox="0 0 894 338" version="1.1" xmlns="http://www.w3.org/2000/svg" xmlns:xlink="http://www.w3.org/1999/xlink" xml:space="preserve" xmlns:serif="http://www.serif.com/" style="fill-rule:evenodd;clip-rule:evenodd;stroke-linejoin:round;stroke-miterlimit:2;">
    <g id="Artboard1" transform="matrix(0.581412,0,0,0.16477,0,0)">
        <rect x="0" y="0" width="1536" height="2048" style="fill:none;"/>
        <clipPath id="_clip1">
            <rect x="0" y="0" width="1536" height="2048"/>
        </clipPath>
        <g clip-path="url(#_clip1)">
            <g transform="matrix(3.26898,0,0,11.535,25.0397,-53.153)">
                <path d="M8.248,9L19.116,69.17L4,95.03L19.77,109.145L8.226,177L157.288,158.508L176.165,168.36L191.05,158.874L450,177L437.561,106.451L444.006,94.049L437.506,75.17L450,9L241.824,23.807L227.41,17.342L213.513,24.547L8.248,9" style="fill:rgb(1,60,186);"/>
            </g>
            <g transform="matrix(3.4399,0,0,12.1381,-13.7588,-109.23)">
                <path d="M8.248,8.999L213.513,24.546L227.41,17.341L241.824,23.806L450,8.999L437.506,75.169L444.005,94.048L437.56,106.45L450,176.999L191.05,158.873L176.164,168.358L157.288,158.507L8.225,176.999L19.77,109.144L4,95.029L19.116,69.169L8.248,8.999ZM28.278,27.064L35.353,66.238C36.053,70.108 35.346,74.101 33.361,77.497C33.361,77.497 25.045,91.723 25.045,91.723L30.774,96.851C35.001,100.633 36.988,106.321 36.036,111.913L28.213,157.894L155.257,142.134C158.581,141.722 161.952,142.331 164.922,143.881C164.922,143.881 175.342,149.319 175.342,149.319L182.183,144.959C185.164,143.06 188.676,142.168 192.202,142.415L430.083,159.066L421.311,109.317C420.681,105.744 421.246,102.062 422.919,98.843L426.099,92.724L421.905,80.541C420.972,77.831 420.761,74.925 421.293,72.108L429.814,26.977L242.995,40.265C240.279,40.459 237.557,39.977 235.072,38.862L227.929,35.659L221.107,39.196C218.385,40.607 215.324,41.232 212.267,41L28.278,27.064Z" style="fill:rgb(255,206,116);"/>
            </g>
            <g transform="matrix(3.28295,0,0,11.5843,150.232,2303.88)">
                <g id="Isolation-Mode" serif:id="Isolation Mode">
                    <g>
                        <g>
                            <g transform="matrix(1,0,0,1,27.7109,-141.167)">
                                <path d="M0,46.269C7.984,44.36 15.137,40.865 22.767,38.254C22.49,38.058 22.397,37.977 22.291,37.92C22.097,37.815 21.899,37.714 21.695,37.628C19.694,36.785 17.56,36.571 15.447,36.64C10.933,36.786 6.424,37.113 1.914,37.361C1.283,37.396 0.895,37.673 0.825,38.329C0.802,38.549 0.741,38.766 0.719,38.986C0.48,41.382 0.245,43.778 0,46.269M3.463,-4.403L3.463,-3.017C3.466,-0.152 3.468,2.712 3.471,5.576C3.478,10.441 3.337,15.3 2.722,20.132C2.589,21.18 2.351,22.215 2.189,23.261C2.154,23.484 2.16,23.834 2.291,23.93C2.429,24.031 2.756,23.943 2.97,23.86C3.289,23.735 3.587,23.551 3.884,23.375C6.711,21.707 9.5,19.97 12.37,18.38C16.565,16.057 20.719,13.677 24.514,10.731C25.735,9.783 26.896,8.738 27.977,7.632C28.903,6.685 28.938,5.708 28.141,4.768C26.274,2.567 24.181,0.618 21.456,-0.495C17.606,-2.068 13.634,-3.235 9.51,-3.812C7.561,-4.085 5.589,-4.2 3.463,-4.403M-16.412,-5.766C-15.983,-6.899 -15.09,-7.502 -14.04,-8.024C-10.677,-9.693 -7.201,-11.043 -3.432,-11.299C-0.33,-11.511 2.793,-11.584 5.901,-11.494C11.175,-11.343 16.36,-10.52 21.394,-8.883C26.348,-7.272 30.848,-4.877 34.512,-1.11C37.053,1.501 38.243,4.674 38.001,8.314C37.87,10.27 36.921,11.921 35.729,13.447C32.916,17.048 29.294,19.688 25.456,22.059C22.958,23.603 20.398,25.048 17.867,26.539C17.683,26.648 17.508,26.773 17.252,26.941C18.662,27.165 19.978,27.327 21.274,27.588C25.407,28.42 29.158,30.094 32.451,32.754C35.885,35.528 35.801,41.312 32.325,44.059C30.021,45.88 27.421,47.113 24.82,48.438C21.832,49.96 18.724,51.097 15.633,52.305C10.808,54.19 5.937,55.958 0.836,56.977C-2.112,57.566 -5.08,57.853 -8.057,57.186C-10.417,56.658 -11.959,55.018 -12.139,52.887C-12.241,51.686 -11.958,50.53 -11.194,49.62C-9.965,48.157 -9.772,46.419 -9.578,44.648C-9.249,41.637 -8.897,38.629 -8.559,35.619C-8.541,35.451 -8.526,35.264 -8.58,35.111C-9.028,33.842 -8.939,32.565 -8.519,31.334C-7.422,28.116 -7.087,24.744 -6.496,21.429C-5.907,18.132 -5.457,14.807 -5.047,11.483C-4.79,9.404 -4.727,7.302 -4.561,5.211C-4.345,2.482 -4.109,-0.246 -3.892,-2.975C-3.859,-3.387 -3.888,-3.803 -3.888,-4.425C-5.134,-4.25 -6.308,-4.169 -7.44,-3.905C-8.877,-3.569 -10.281,-3.088 -11.697,-2.662C-14.101,-1.94 -15.309,-2.429 -16.412,-4.581L-16.412,-5.766Z" style="fill:white;fill-rule:nonzero;"/>
                            </g>
                            <g transform="matrix(1,0,0,1,292.112,-81.9588)">
                                <path d="M0,20.967C-0.965,20.618 -1.974,20.359 -2.886,19.904C-6.12,18.291 -7.983,15.643 -8.574,12.091C-8.597,11.95 -8.577,11.8 -8.577,11.57L4.865,11.57L4.865,9.867L-8.613,9.867C-8.442,7.873 -7.812,6.155 -6.675,4.651C-4.187,1.36 -0.796,0 3.218,0.597C7.171,1.186 9.884,3.549 11.29,7.294C13.358,12.805 9.955,19.192 4.238,20.628C3.859,20.724 3.489,20.853 3.115,20.967L0,20.967Z" style="fill:white;fill-rule:nonzero;"/>
                            </g>
                            <g transform="matrix(1,0,0,1,247.5,-99.2201)">
                                <path d="M0,-42.879C-1.246,-40.502 -2.586,-38.169 -3.718,-35.739C-6.02,-30.8 -8.322,-25.855 -10.398,-20.82C-11.453,-18.263 -12.041,-15.511 -12.797,-12.835C-13.395,-10.721 -14.509,-9.052 -16.65,-8.29C-19.202,-7.38 -21.852,-8.477 -23.405,-11.164C-25.626,-15.005 -27.834,-18.846 -29.66,-22.912C-31.669,-27.385 -33.998,-31.715 -36.182,-36.11C-36.518,-36.785 -36.825,-37.475 -37.128,-38.12C-37.078,-34.731 -36.878,-31.323 -37.015,-27.929C-37.21,-23.126 -37.607,-18.329 -38.004,-13.537C-38.46,-8.032 -39.015,-2.536 -39.518,2.964C-39.726,5.248 -39.761,7.558 -40.136,9.813C-40.746,13.486 -44.136,14.357 -46.693,13.781C-47.811,13.53 -48.509,12.732 -49.076,11.807C-49.707,10.777 -50.112,9.652 -50.058,8.442C-49.892,4.747 -49.736,1.05 -49.461,-2.638C-49.053,-8.122 -48.426,-13.592 -48.117,-19.081C-47.814,-24.452 -47.928,-29.847 -47.602,-35.215C-47.359,-39.217 -46.708,-43.195 -46.238,-47.184C-46.022,-49.016 -45.892,-50.863 -45.569,-52.677C-44.873,-56.581 -40.995,-58.159 -37.713,-55.925C-35.809,-54.629 -34.465,-52.816 -33.333,-50.873C-29.744,-44.714 -26.172,-38.543 -22.697,-32.319C-21.474,-30.128 -20.549,-27.771 -19.488,-25.49C-19.368,-25.231 -19.246,-24.973 -19.106,-24.675C-16.371,-30.38 -13.742,-36.067 -10.93,-41.663C-8.796,-45.912 -5.937,-49.722 -2.91,-53.367C-0.689,-56.041 3.047,-56.812 5.774,-54.423C7.1,-53.261 7.838,-51.677 8.22,-50.022C8.756,-47.701 9.146,-45.336 9.423,-42.969C9.885,-39.026 10.199,-35.066 10.589,-31.115C11.278,-24.14 11.963,-17.169 11.715,-10.139C11.632,-7.781 11.868,-5.411 11.946,-3.047C11.967,-2.431 12.034,-1.795 11.919,-1.2C11.566,0.631 11.768,2.433 12.041,4.242C12.423,6.781 12.433,9.303 11.666,11.787C11.11,13.587 10.006,14.851 8.073,15.069C6.207,15.28 4.619,14.654 3.536,13.025C3.428,12.862 3.325,12.684 3.27,12.498C2.374,9.48 1.083,6.549 0.819,3.384C0.6,0.759 0.603,-1.89 0.61,-4.528C0.625,-10.352 0.79,-16.177 0.735,-22C0.67,-28.861 0.437,-35.721 0.275,-42.581C0.274,-42.65 0.248,-42.717 0.234,-42.785C0.156,-42.817 0.078,-42.848 0,-42.879" style="fill:white;fill-rule:nonzero;"/>
                            </g>
                            <g transform="matrix(1,0,0,1,329.624,-121.996)">
                                <path d="M0,-0.44C2.527,-1.835 4.922,-3.107 7.268,-4.466C9.412,-5.708 11.43,-7.165 12.945,-9.144C14.27,-10.876 14.667,-12.934 13.709,-14.928C12.973,-16.459 11.72,-17.68 10.178,-18.52C9.03,-19.146 7.842,-19.708 6.74,-20.406C4.642,-21.736 2.361,-22.392 -0.098,-22.556C-1.289,-22.635 -1.372,-22.648 -1.316,-21.468C-1.032,-15.509 -0.726,-9.55 -0.399,-3.593C-0.344,-2.592 -0.15,-1.598 0,-0.44M-10.091,3.998C-10.824,1.738 -10.726,-0.471 -10.681,-2.659C-10.565,-8.212 -10.355,-13.764 -10.235,-19.317C-10.209,-20.516 -10.346,-21.727 -10.506,-22.919C-10.852,-25.5 -9.711,-27.369 -7.734,-28.822C-3.686,-31.798 0.781,-32.301 5.493,-30.829C10.086,-29.394 14.47,-27.473 18.359,-24.589C22.507,-21.514 24.779,-17.386 24.735,-12.189C24.702,-8.312 23.078,-4.986 20.596,-2.053C17.416,1.705 13.233,4.002 8.863,6.031C7.617,6.61 6.372,7.191 4.962,7.848C6.609,8.526 8.079,9.138 9.554,9.737C16,12.351 22.444,14.969 28.899,17.56C29.693,17.879 30.551,18.042 31.379,18.276C33.586,18.899 34.816,20.261 34.874,22.148C34.94,24.277 33.713,26.048 31.655,26.807C29.719,27.521 27.79,27.361 25.833,26.862C20.954,25.616 16.367,23.628 11.821,21.512C9.116,20.253 6.375,19.065 3.614,17.932C2.483,17.468 1.257,17.232 -0.02,16.865C-0.059,17.128 -0.102,17.357 -0.125,17.588C-0.352,19.918 -0.57,22.249 -0.805,24.578C-0.914,25.656 -0.973,26.747 -1.197,27.802C-1.689,30.113 -3.418,31.575 -5.696,31.727C-7.717,31.861 -9.775,30.527 -10.453,28.402C-10.882,27.059 -11.173,25.622 -11.215,24.218C-11.294,21.533 -11.158,18.841 -11.095,16.152C-11.082,15.637 -10.993,15.124 -10.935,14.609C-10.859,13.921 -11.191,13.447 -11.788,13.202C-12.873,12.756 -13.589,11.912 -14.235,11.007C-15.955,8.599 -14.557,5.156 -11.58,4.404C-11.108,4.285 -10.64,4.148 -10.091,3.998" style="fill:white;fill-rule:nonzero;"/>
                            </g>
                            <g transform="matrix(1,0,0,1,100.971,-100.276)">
                                <path d="M0,-34.888C-0.089,-34.464 -0.153,-34.154 -0.22,-33.844C-0.466,-32.708 -1.152,-32.103 -2.309,-32.002C-3.333,-31.912 -4.243,-32.471 -4.661,-33.449C-5.116,-34.513 -5.227,-34.549 -6.254,-33.962C-6.382,-33.889 -6.511,-33.814 -6.633,-33.73C-8.977,-32.113 -10.73,-29.973 -12.094,-27.5C-12.915,-26.01 -13.686,-24.491 -14.519,-23.007C-15.886,-20.572 -16.905,-18.019 -17.061,-15.205C-17.148,-13.633 -17.34,-12.003 -17.043,-10.486C-16.436,-7.393 -14.866,-4.753 -12.488,-2.62C-8.995,0.514 -4.392,0.893 -0.886,-1.754C2.012,-3.941 4.768,-6.286 7.199,-9.007C11.207,-13.493 13.441,-18.6 12.989,-24.715C12.889,-26.068 12.546,-27.328 11.789,-28.472C9.004,-32.678 4.797,-34.25 0,-34.888M-1.17,-46.125C4.349,-46.346 9.234,-44.48 13.944,-41.822C16.562,-40.345 18.348,-38.146 20.052,-35.804C21.633,-33.631 23.039,-31.357 23.404,-28.644C23.589,-27.265 23.565,-25.842 23.491,-24.447C23.277,-20.398 22.736,-16.401 21.274,-12.58C20.001,-9.253 18.082,-6.303 15.97,-3.462C12.753,0.864 8.817,4.427 4.349,7.408C-0.811,10.852 -6.355,11.458 -12.192,9.436C-13.681,8.92 -15.135,8.299 -16.592,7.693C-17.688,7.237 -18.52,6.45 -19.284,5.545C-19.848,4.876 -20.623,4.387 -21.198,3.726C-22.227,2.542 -23.302,1.368 -24.133,0.048C-25.974,-2.877 -27.286,-6.05 -27.702,-9.505C-28.08,-12.638 -27.785,-15.755 -27.165,-18.847C-26.492,-22.203 -24.839,-25.132 -23.096,-27.991C-21.353,-30.851 -19.49,-33.649 -17.504,-36.344C-16.602,-37.568 -15.363,-38.6 -14.117,-39.497C-13.029,-40.28 -12.361,-41.346 -11.556,-42.332C-9.787,-44.5 -7.428,-45.562 -4.715,-45.899C-3.542,-46.045 -2.352,-46.054 -1.17,-46.125" style="fill:white;fill-rule:nonzero;"/>
                            </g>
                            <g transform="matrix(1,0,0,1,162.234,-100.409)">
                                <path d="M0,-34.755C-0.089,-34.329 -0.151,-34.018 -0.218,-33.709C-0.464,-32.575 -1.154,-31.969 -2.31,-31.869C-3.335,-31.781 -4.243,-32.341 -4.66,-33.319C-5.113,-34.38 -5.225,-34.417 -6.255,-33.828C-6.383,-33.755 -6.511,-33.68 -6.633,-33.596C-8.978,-31.978 -10.73,-29.838 -12.093,-27.365C-12.914,-25.874 -13.686,-24.356 -14.518,-22.872C-15.885,-20.436 -16.904,-17.884 -17.059,-15.069C-17.146,-13.497 -17.336,-11.868 -17.04,-10.351C-16.44,-7.283 -14.884,-4.664 -12.54,-2.534C-9.024,0.659 -4.353,1.033 -0.82,-1.664C2.066,-3.868 4.827,-6.206 7.253,-8.931C11.254,-13.427 13.458,-18.548 12.987,-24.659C12.887,-25.959 12.551,-27.174 11.829,-28.279C9.05,-32.53 4.825,-34.115 0,-34.755M-1.13,-45.994C4.39,-46.207 9.272,-44.332 13.979,-41.67C16.572,-40.203 18.344,-38.022 20.033,-35.7C21.614,-33.529 23.034,-31.261 23.396,-28.546C23.583,-27.142 23.563,-25.696 23.492,-24.276C23.3,-20.475 22.798,-16.715 21.524,-13.104C20.179,-9.289 17.994,-5.951 15.542,-2.772C12.174,1.593 8.124,5.218 3.43,8.095C-1.396,11.054 -6.543,11.452 -11.87,9.658C-13.48,9.116 -15.051,8.454 -16.624,7.808C-17.698,7.366 -18.51,6.587 -19.26,5.705C-19.827,5.038 -20.497,4.442 -21.186,3.898C-22.458,2.895 -23.317,1.575 -24.131,0.223C-25.914,-2.74 -27.272,-5.882 -27.694,-9.338C-28.079,-12.496 -27.781,-15.635 -27.152,-18.752C-26.47,-22.133 -24.791,-25.075 -23.037,-27.956C-21.309,-30.796 -19.452,-33.568 -17.48,-36.243C-16.592,-37.448 -15.377,-38.472 -14.145,-39.345C-13.028,-40.136 -12.352,-41.227 -11.53,-42.229C-9.771,-44.37 -7.431,-45.421 -4.748,-45.763C-3.552,-45.916 -2.337,-45.922 -1.13,-45.994" style="fill:white;fill-rule:nonzero;"/>
                            </g>
                            <g transform="matrix(1,0,0,1,287.157,-97.4345)">
                                <path d="M0,-44.343C0.094,-41.283 0.231,-38.351 0.259,-35.417C0.282,-33.075 0.193,-30.731 0.108,-28.39C0.089,-27.852 0.15,-27.566 0.764,-27.515C2.682,-27.355 4.6,-27.174 6.513,-26.958C8.223,-26.765 9.979,-26.734 11.554,-25.913C12.072,-25.643 12.569,-25.297 13.003,-24.905C14.083,-23.927 14.626,-22.705 14.233,-21.251C13.827,-19.753 12.715,-18.924 11.259,-18.553C9.133,-18.012 6.959,-17.941 4.784,-18.041C3.38,-18.106 1.979,-18.261 0.583,-18.426C0.033,-18.491 -0.178,-18.326 -0.22,-17.788C-0.567,-13.362 -0.92,-8.937 -1.291,-4.513C-1.363,-3.655 -1.524,-2.804 -1.641,-1.95C-1.668,-1.754 -1.695,-1.557 -1.701,-1.361C-1.748,0.217 -1.516,0.433 0.012,0.316C2.744,0.106 5.475,-0.193 8.211,-0.249C9.429,-0.274 10.699,0.078 11.871,0.475C13.593,1.057 14.65,2.349 14.868,4.176C15.094,6.071 14.252,7.517 12.74,8.613C11.66,9.395 10.421,9.767 9.122,9.738C6.604,9.682 4.088,9.531 1.574,9.385C-0.964,9.238 -3.497,8.971 -6.036,8.906C-7.684,8.863 -9.337,9.129 -10.99,9.173C-11.716,9.192 -12.48,9.105 -13.169,8.885C-14.936,8.32 -15.669,6.507 -14.763,4.902C-14.361,4.19 -14.254,3.479 -14.262,2.713C-14.277,1.158 -14.3,-0.398 -14.328,-1.953C-14.4,-5.917 -13.834,-9.817 -13.224,-13.721C-12.68,-17.202 -12.238,-20.7 -11.807,-24.198C-11.345,-27.942 -10.942,-31.693 -10.524,-35.442C-10.163,-38.676 -9.772,-41.909 -9.504,-45.152C-9.459,-45.693 -9.945,-46.292 -10.23,-46.842C-10.689,-47.726 -11.337,-48.544 -11.63,-49.476C-12.031,-50.752 -11.363,-52.075 -10.2,-52.746C-9.031,-53.42 -7.801,-53.81 -6.408,-53.811C-1.02,-53.816 4.368,-53.896 9.756,-53.939C11.432,-53.952 13.13,-54.11 14.778,-53.898C17.685,-53.524 19.926,-50.954 20.167,-48.033C20.352,-45.777 18.608,-43.414 16.191,-42.53C14.408,-41.878 12.647,-42.144 10.862,-42.461C7.294,-43.093 3.722,-43.7 0,-44.343" style="fill:white;fill-rule:nonzero;"/>
                            </g>
                            <g transform="matrix(1,0,0,1,262.96,-70.4216)">
                                <path d="M0,-2.169C-0.186,0.507 -0.338,2.945 -0.537,5.378C-0.584,5.959 -0.698,6.572 -0.953,7.084C-1.114,7.407 -1.604,7.766 -1.931,7.752C-2.258,7.738 -2.784,7.32 -2.842,7.009C-3.002,6.15 -3.051,5.247 -2.987,4.373C-2.722,0.759 -2.398,-2.85 -2.095,-6.461C-2.074,-6.707 -2.062,-6.955 -2.021,-7.197C-1.913,-7.833 -1.417,-8.193 -0.85,-7.886C-0.296,-7.587 0.352,-7.153 0.583,-6.617C1.575,-4.315 2.449,-1.96 3.325,0.391C3.89,1.905 4.382,3.445 4.907,4.974C5.025,4.965 5.142,4.957 5.26,4.949C5.414,3.983 5.589,3.02 5.718,2.05C6.173,-1.368 6.601,-4.79 7.069,-8.206C7.134,-8.684 7.29,-9.19 7.547,-9.591C7.844,-10.053 8.235,-10.545 8.706,-10.778C9.099,-10.973 9.79,-10.985 10.119,-10.752C10.381,-10.568 10.409,-9.875 10.343,-9.438C10.192,-8.444 9.837,-7.479 9.713,-6.484C9.374,-3.769 9.169,-1.036 8.799,1.674C8.567,3.374 8.201,5.065 7.766,6.726C7.508,7.715 6.973,8.694 5.776,8.755C4.597,8.816 3.605,8.197 3.138,7.151C2.459,5.632 1.957,4.03 1.433,2.446C1.039,1.255 0.734,0.036 0.379,-1.168C0.299,-1.441 0.178,-1.702 0,-2.169" style="fill:white;fill-rule:nonzero;"/>
                            </g>
                            <g transform="matrix(1,0,0,1,254.29,-69.4131)">
                                <path d="M0,-1.996C-0.052,-3.185 -0.419,-4.211 -1.162,-5.091C-2.135,-6.243 -3.088,-6.224 -4.031,-5.029C-5.241,-3.498 -5.786,-1.716 -5.768,0.198C-5.758,1.211 -5.631,2.285 -5.263,3.216C-4.758,4.491 -3.608,4.603 -2.689,3.573C-2.117,2.933 -1.609,2.226 -1.141,1.505C-0.445,0.434 -0.059,-0.754 0,-1.996M3.69,-2.404C3.599,-0.453 3.019,1.333 1.932,2.893C1.068,4.135 0.077,5.324 -1.028,6.354C-1.982,7.243 -3.272,7.61 -4.61,7.441C-6.668,7.182 -8.067,5.713 -8.567,3.221C-9.283,-0.344 -8.407,-3.527 -6.058,-6.292C-5.73,-6.679 -5.25,-6.933 -4.863,-7.274C-4.263,-7.804 -3.646,-8.322 -3.105,-8.908C-2.606,-9.45 -2.04,-9.606 -1.371,-9.417C1.028,-8.738 2.435,-7.038 3.224,-4.784C3.488,-4.029 3.541,-3.2 3.69,-2.404" style="fill:white;fill-rule:nonzero;"/>
                            </g>
                            <g transform="matrix(1,0,0,1,310.133,-64.5897)">
                                <path d="M0,-13.283L0,-7.946C1.1,-7.946 2.156,-7.943 3.211,-7.948C3.507,-7.949 3.805,-7.95 4.096,-7.99C5.63,-8.201 6.598,-9.253 6.603,-10.698C6.609,-12.243 5.874,-13.132 4.25,-13.26C2.858,-13.37 1.45,-13.283 0,-13.283M-0.008,-0.076C1.547,-0.076 3.078,0.05 4.579,-0.109C6.315,-0.293 7.153,-1.521 7.069,-3.348C6.996,-4.944 6.031,-5.936 4.31,-6.035C2.958,-6.112 1.599,-6.062 0.243,-6.062C0.155,-6.062 0.068,-6.003 -0.008,-5.976L-0.008,-0.076ZM-2.285,1.923L-2.285,-15.227C-1.919,-15.227 -1.583,-15.234 -1.247,-15.226C0.899,-15.176 3.054,-15.231 5.186,-15.038C6.892,-14.884 8.187,-13.958 8.694,-12.199C9.194,-10.463 8.944,-8.924 7.462,-7.734C7.179,-7.507 6.863,-7.323 6.508,-7.082C7.866,-6.595 8.79,-5.721 9.192,-4.338C10.009,-1.525 8.41,1.2 5.536,1.688C4.281,1.902 2.982,1.881 1.701,1.915C0.398,1.951 -0.907,1.923 -2.285,1.923" style="fill:white;fill-rule:nonzero;"/>
                            </g>
                            <g transform="matrix(1,0,0,1,349.938,-67.652)">
                                <path d="M0,-7.243L-2.273,-7.243C-2.3,-7.368 -2.334,-7.481 -2.349,-7.598C-2.585,-9.388 -3.704,-10.476 -5.513,-10.487C-6.404,-10.493 -7.362,-10.405 -8.175,-10.076C-9.905,-9.376 -10.176,-7.028 -8.626,-6.005C-7.661,-5.367 -6.484,-5.048 -5.402,-4.586C-4.296,-4.113 -3.13,-3.744 -2.097,-3.145C-0.503,-2.22 0.194,-0.722 -0.008,1.112C-0.205,2.913 -1.307,4.093 -2.942,4.691C-5.471,5.617 -7.953,5.422 -10.261,3.974C-11.67,3.089 -12.416,1.784 -12.473,-0.032C-11.789,-0.032 -11.134,-0.056 -10.484,-0.011C-10.352,-0.002 -10.166,0.251 -10.128,0.419C-9.741,2.151 -8.606,3.209 -6.836,3.244C-5.821,3.263 -4.77,3.156 -3.793,2.89C-2.834,2.629 -2.361,1.806 -2.313,0.797C-2.264,-0.22 -2.586,-1.114 -3.549,-1.537C-4.831,-2.099 -6.18,-2.506 -7.482,-3.024C-8.258,-3.333 -9.044,-3.658 -9.748,-4.098C-12.817,-6.017 -12.652,-10.073 -9.39,-11.658C-6.914,-12.86 -4.396,-12.759 -2.071,-11.191C-0.727,-10.284 -0.1,-8.919 0,-7.243" style="fill:white;fill-rule:nonzero;"/>
                            </g>
                            <g transform="matrix(1,0,0,1,352.85,-79.7619)">
                                <path d="M0,17.032L0,0L10.753,0C10.806,0.064 10.833,0.082 10.835,0.102C11.012,1.838 11.012,1.838 9.272,1.838L2.33,1.838L2.33,7.282L9.661,7.282L9.661,9.153L2.328,9.153L2.328,15.181L10.846,15.181L10.846,17.032L0,17.032Z" style="fill:white;fill-rule:nonzero;"/>
                            </g>
                            <g transform="matrix(1,0,0,1,331.579,-73.407)">
                                <path d="M0,4.312C-0.966,1.676 -1.9,-0.873 -2.886,-3.566C-3.868,-0.87 -4.8,1.688 -5.755,4.312L0,4.312ZM-10.451,10.74C-9.802,9.042 -9.197,7.463 -8.595,5.884C-7.156,2.11 -5.721,-1.665 -4.273,-5.435C-4.146,-5.768 -3.988,-6.285 -3.754,-6.342C-3.195,-6.476 -2.58,-6.406 -1.991,-6.369C-1.886,-6.362 -1.76,-6.131 -1.703,-5.982C0.407,-0.465 2.511,5.054 4.672,10.723C3.904,10.723 3.205,10.756 2.515,10.696C2.366,10.683 2.201,10.351 2.12,10.136C1.695,9.01 1.279,7.878 0.891,6.738C0.758,6.347 0.553,6.212 0.137,6.216C-1.863,6.237 -3.865,6.24 -5.865,6.215C-6.317,6.209 -6.528,6.369 -6.667,6.779C-7.061,7.947 -7.463,9.112 -7.921,10.255C-8.007,10.472 -8.349,10.688 -8.596,10.719C-9.154,10.788 -9.727,10.74 -10.451,10.74" style="fill:white;fill-rule:nonzero;"/>
                            </g>
                        </g>
                    </g>
                </g>
            </g>
        </g>
    </g>
</svg>
